<svg width="32" height="32" viewBox="0 0 32 32" fill="none" xmlns="http://www.w3.org/2000/svg">
  <!-- Globe background -->
  <circle cx="16" cy="16" r="14" fill="#E0F2FE" stroke="#0284C7" stroke-width="1"/>
  
  <!-- World continents (simplified) -->
  <path d="M10 14 Q12 12 14 13 L14 18 Q12 19 10 18 Z" fill="#06B6D4" opacity="0.6"/>
  <path d="M18 11 Q20 10 22 12 L22 16 Q20 17 18 16 Z" fill="#06B6D4" opacity="0.6"/>
  
  <!-- Location pin marker -->
  <path d="M16 8 C14.3 8 13 9.3 13 11 C13 13.2 16 17 16 17 C16 17 19 13.2 19 11 C19 9.3 17.7 8 16 8 Z" fill="#DC2626" stroke="#B91C1C" stroke-width="1"/>
  
  <!-- Inner circle of pin -->
  <circle cx="16" cy="11" r="1.5" fill="white"/>
  
  <!-- Route line (curved path) -->
  <path d="M11 20 Q16 18 22 21" stroke="#0284C7" stroke-width="1.5" stroke-linecap="round" stroke-dasharray="1 2" opacity="0.7"/>
  
  <!-- Compass rose element -->
  <circle cx="25" cy="7" r="2.5" fill="none" stroke="#0284C7" stroke-width="0.8" opacity="0.5"/>
  <path d="M25 5.5 L25 4.5" stroke="#DC2626" stroke-width="1" stroke-linecap="round"/>
</svg>
